<svg width="24" height="24" viewBox="0 0 24 24" fill="none" xmlns="http://www.w3.org/2000/svg">
<path d="M12 8H20.5C20.8978 8 21.2794 8.15804 21.5607 8.43934C21.842 8.72064 22 9.10218 22 9.5C22 9.89782 21.842 10.2794 21.5607 10.5607C21.2794 10.842 20.8978 11 20.5 11H13M13.5 11H15.5C15.697 11 15.892 11.0388 16.074 11.1142C16.256 11.1896 16.4214 11.3001 16.5607 11.4393C16.6999 11.5786 16.8104 11.744 16.8858 11.926C16.9612 12.108 17 12.303 17 12.5C17 12.697 16.9612 12.892 16.8858 13.074C16.8104 13.256 16.6999 13.4214 16.5607 13.5607C16.4214 13.6999 16.256 13.8104 16.074 13.8858C15.892 13.9612 15.697 14 15.5 14H13M14.5 14C14.8978 14 15.2794 14.158 15.5607 14.4393C15.842 14.7206 16 15.1022 16 15.5C16 15.8978 15.842 16.2794 15.5607 16.5607C15.2794 16.842 14.8978 17 14.5 17H13" stroke="black" stroke-width="2" stroke-linecap="round" stroke-linejoin="round"/>
<path d="M13.5 17.0002C13.8978 17.0002 14.2794 17.1582 14.5607 17.4395C14.842 17.7208 15 18.1024 15 18.5002C15 18.898 14.842 19.2795 14.5607 19.5608C14.2794 19.8421 13.8978 20.0002 13.5 20.0002H9C7.4087 20.0002 5.88258 19.368 4.75736 18.2428C3.63214 17.1176 3 15.5915 3 14.0002V12.0002V12.2082C2.99983 11.2145 3.24645 10.2364 3.71771 9.36157C4.18898 8.48676 4.87013 7.7427 5.7 7.19618L6 7.00018C6.47867 6.68818 8.388 5.59285 11.728 3.71418C12.0685 3.52263 12.4702 3.47147 12.8478 3.57157C13.2255 3.67166 13.5491 3.91513 13.75 4.25018C13.9636 4.60721 14.0521 5.02529 14.0014 5.43824C13.9506 5.8512 13.7637 6.23545 13.47 6.53018L12 8.00018" stroke="black" stroke-width="2" stroke-linecap="round" stroke-linejoin="round"/>
</svg>
