<svg width="200" height="200" viewBox="0 0 100 100" fill="none" xmlns="http://www.w3.org/2000/svg">
  <rect x="25" y="30" width="50" height="40" stroke="white" stroke-width="2" stroke-linejoin="round"/>

  <line x1="41.6" y1="30" x2="41.6" y2="70" stroke="white" stroke-width="2"/>
  <line x1="58.3" y1="30" x2="58.3" y2="70" stroke="white" stroke-width="2"/>

  <g stroke="white" stroke-width="1.2" stroke-linecap="round">
    <path d="M30 35h10 M30 38h10 M30 41h10"/>
    <path d="M46.6 35h10 M46.6 38h10 M46.6 41h10"/>
    <path d="M63.3 35h10 M63.3 38h10 M63.3 41h10"/>
  </g>

  <g stroke="white" stroke-width="1.2" stroke-linecap="round">
    <path d="M30 59h10 M30 62h10 M30 65h10"/>
    <path d="M46.6 59h10 M46.6 62h10 M46.6 65h10"/>
    <path d="M63.3 59h10 M63.3 62h10 M63.3 65h10"/>
  </g>

  <rect x="36" y="48" width="2" height="6" fill="white"/>
  <rect x="52.6" y="48" width="2" height="6" fill="white"/>
  <rect x="69.3" y="48" width="2" height="6" fill="white"/>

  <line x1="30" y1="70" x2="30" y2="74" stroke="white" stroke-width="2" stroke-linecap="round"/>
  <line x1="70" y1="70" x2="70" y2="74" stroke="white" stroke-width="2" stroke-linecap="round"/>
</svg>
